<?xml version="1.0" encoding="UTF-8"?>
<svg id="Ebene_1" xmlns="http://www.w3.org/2000/svg" version="1.1" viewBox="0 0 1024 1024">
  <!-- Generator: Adobe Illustrator 29.8.1, SVG Export Plug-In . SVG Version: 2.1.1 Build 2)  -->
  <defs>
    <style>
      .st0 {
        fill: #155f80;
      }

      .st1 {
        fill: #975b37;
      }

      .st2 {
        fill: #43a070;
      }

      .st3 {
        fill: #60539f;
      }

      .st4 {
        fill: #ece2d5;
      }

      .st5 {
        fill: #efa229;
      }

      .st6 {
        fill: #bd9b7b;
      }

      .st7 {
        fill: #2e91a0;
      }

      .st8, .st9 {
        fill: #fbf4e7;
      }

      .st10 {
        fill: #272e39;
      }

      .st11 {
        fill: #45b8c5;
      }

      .st9 {
        display: none;
      }
    </style>
  </defs>
  <rect class="st9" width="1024" height="1024"/>
  <g>
    <path class="st4" d="M729,903c.12-.15,1.83,0,2.46-1,3.84-6.14,2.68-14.45.55-20.99,20.62,3.66,43.66,5.3,63.51,11.98,33.99,11.42-2.36,20.5-17.32,23.71-93.56,20.09-235.46,17.45-332.75,15.35-61.29-1.32-150.27-2.77-208.66-17.34-5.64-1.41-30.21-8.01-22.19-16.62,8.66-9.29,62.34-14.17,76.39-17.09-2.8,8.07-3.51,14.87,2.01,21.99l2.78.21c29.45,23.47,80.2,11.57,105.15-14.19l3.07-.02c.52-1.38,1.23-2.67,2.13-3.88,51.86,7.89,107.52,9.34,158.21,5.62l1.66-.74c.73-.56,1.48-1.09,2.29-1.49s1.56-.75,2.36-.83c13.04-1.41,26.29-2.72,39.35-3.91.8-.07,1.63.09,2.46.3s1.71.56,2.54.94l2.82.84c22.7,27.45,70.8,37.65,103.1,22.68l3.07.48,2-2c-2.14-1.87.43-5.04,3-4Z"/>
    <path class="st8" d="M566,890c.56,3.04-1.53,1.91-3.45,2-51.35,2.41-103.32,2.04-154.12-6.11-2.47-.38-2.83,1.72-4.44,3.1l1-5c50.95,8.89,109.46,9.52,161,6Z"/>
    <g>
      <g>
        <path class="st0" d="M273,780c2.9,1.23,7.81,9.09,6,12l3.98,3.01c49.61,82.06,160.28,87.51,246.44,85.08,59.76-1.69,123.78-6.37,172.64-44.61l4.94-1.48c-.68,2.7-3.6,16.22-4,17-.46.9-9.18,4.5-10,7-.89,3.39-6.56,5.78-10,6l-3.47,3.28c-8.21,3.49-44.32,17.67-50.09,16.53-.84-.17-1.65-.47-2.45-.81-2.14,3.56-8.69,4.54-12,2-15.5,2.62-33.23,3.92-49,5-20.5,2.83-41.83,2.83-62.66,2.62-32.84-.33-66.25-1.89-98.34-8.62-3.16,2.41-7.93,1.45-10-2-.89.33-1.79.63-2.71.78s-1.79.29-2.59.1c-15.08-3.54-28.28-8.22-42.03-14.34-4-.79-6.89-2.3-8.67-4.55-3.57-.54-6.7-1.91-9.85-3.64l-.15-2.36c-29.46-17.04-53.12-44.01-67-75,.57-.07,10.09-2.68,11-3Z"/>
        <path class="st11" d="M737,760c-.68,2.53-.58,9.36-2.47,11.03-2.73,2.42-9.47-.66-15.03,2.97-5.25,3.42-16.94,32.11-16.55,38.49.37,5.98,6.47,8.94,6.89,12.24.24,1.86-2.19,6.68-2.84,9.27-47.54,40.43-115.18,46.5-175.46,48.04-88,2.25-205.5-3.02-252.54-90.04l.84-2.41c6.71-2.65,10.12-9.12,12.17-15.69,1.25-6.62,3.25-12.73,5.99-18.35,23.57,5.38,47.34,8.74,71.31,10.08,11.02.42,18.68,3.56,25.56,12.07,71.66,53.14,171.75,53.35,241.72-1.02,5.28-2.92,11.15-4.48,17.6-4.68,27.71-1.49,54.68-6.03,80.92-13.62l1.89,1.61Z"/>
        <path class="st7" d="M273,780c13.4-4.66,17.46-12.07,18.89-25.61.26-2.5-2.91-6.69,1.52-7.33,15.89,3.76,32.02,6.85,48.24,8.79,12.49,1.5,44.65,1.1,53.63,4.37,4.71,1.71,20.42,15.25,27.86,19.14,55.57,29.09,116.51,28.65,172.22,1.48,8.58-4.18,24.62-15.81,32.39-17.61,15.12-3.5,41.45-2.4,58.62-4.38,18.02-2.08,36.21-4.89,53.63-9.86.69,4.01-2.13,7.8-2.99,11l-36.83,8.67c-16.58,5.64-43.04,3.01-58.42,7.58-4.4,1.31-17.91,12.43-23.44,15.56-73.18,41.32-154.59,36.26-223.23-11.38-3.4-2.36-8.07-8.65-11.84-10.16-8.28-3.32-42.34-4.7-54.45-6.55-9.91-1.51-20.8-3.47-30.29-6.68-3.75,12.46-4.78,30.49-19.49,34.97-2.11-3.91-5.08-7.48-6-12Z"/>
      </g>
      <g>
        <g>
          <g>
            <path class="st10" d="M693,858c3.39-.73,4.35,1.9,4.63,1.97,2.58.65,9.77,2.33,13.37,4.42,14.73,8.58,28.44,21.33,18,38.61-.74.97-2.29,3.49-3,4l-2,2c-16.66,10.8-44.27,9.95-62.4,4.86-16.51-4.64-38.01-13.21-46.6-28.86,3.91-.66,8.16-1.17,12-2l2.08.03c10.01,11.28,27.64,16.81,42.18,19.92,10.55,2.26,39.18,4.75,17.74-10.13-2.49-2.62-2.19-5.79.52-8.22,7.87-7.05,21.33,9.92,24.26,16.17,13.09-9.02,3.46-19.88-6.9-25.76-7.22-4.1-15.32-6.48-23.22-8.75l-.66-2.25c2.01-2.25,7.21-5.4,10-6Z"/>
            <path class="st8" d="M724,909c.24-.15,1.03-1.3,2-2l-2,2Z"/>
            <path class="st6" d="M683,864c13.25,3.59,41,11.82,38.93,29.42-.39,3.36-5.53,9.35-8.6,9.48-2.58.11-9.99-21.65-22.67-16.73-6.33,6.85,11.05,7.94,7.92,16.87-7.56,11.37-65.59-5.37-71.58-20.03,19.21-4.18,37.42-12.92,56-19Z"/>
          </g>
          <g>
            <path class="st10" d="M329,858c3.3,1.91,7.56,3.17,10,6l-1.26,2.09c-10.19,1.52-42.11,15.34-34.02,28.75,5.53,9.18,8,7.29,10.75-1.75,3.67-8.62,25.16-15.5,21.02-1.2-23.78,16.03,5.11,13.78,16.96,10.98,13.93-3.3,31.49-9.07,40.32-20.74l2.23-.12c3.26.68,6.73,1.43,10,2,1.93-.08,1.6,1.59-1,5-13.51,11.68-19.82,17.92-37.83,23.67-20.13,6.42-58.71,8.99-73.17-9.67-4.31-9.9-3.5-19.5,4.01-28.49,6.59-7.89,22.56-12.49,31.99-16.51Z"/>
            <path class="st6" d="M339,864c5.02-.09,24.84,9.5,31.81,11.69,7.85,2.47,16.15,4.63,24.19,6.31-5.74,15.36-59.16,31.32-68.98,22.49-7.24-6.5,8.1-12.22,8.85-15.14-.94-7.06-11.46-2.66-15.37.65-4.69,3.98-5.08,9.77-7,12-3.46,4-13.37-6.46-12.31-13.25,1.76-11.3,28.72-24.59,38.81-24.76Z"/>
          </g>
        </g>
        <g>
          <path class="st10" d="M683,567c3.46-.06,2.79,9.29,0,10l-.96,2.26c-7.24,1.62-24.88,6.34-26.72,14.47-1.37,6.08,2.71,6.94,7.89,5.93,13-4.98,19.38,1.32,7.2,10.8-27.85,9.28.7,26.97,16.64,26.44l.95,2.1c4.86.15,7.11,8.06,3,10,1.92,2.1,2.12,5,.61,8.72l-9.43,31.43c2.82-.48,4.76.14,5.82,1.85l1.76-1.05c28.56-3.32,55.88-9.81,81.96-19.49l2.28.54,1-1c-.88-.25-.86-.58,0-1,1.26-2.18,7.54-4.42,10-4,.45,1.58,6.83,5.08,8.57,8.93,3.26,7.25,1.6,44.05.42,53.55-1.26,10.14-2.49,14.39-10.65,20.35-2.41,1.77-6.84,2.1-8.41,3.85-1.1,1.22-9.59,28.82-8.79,30.18.21.36,5.41,2.15,7.24,4.26,6.43,7.39,4.28,15.33,2.18,22.93-1.33,4.79-7.9,23.46-11.03,25.97-5.98,4.8-14.73,2.6-15.44,3.02-.78.45-5,13.55-6.9,16.65-6.94,11.36-15.92,11.74-12.93-4.21.08-.41,1.34-.47,1.38-.66,2.91-12.29,9.5-17.57-6.62-20.82-2.38,7.21-10.97,32.24-21.02,22.01-.72-.24-1.74-.68-1.7-1.24.32-4.75,2.76-12.03,5.7-15.76-.87-.25-1.42-.79-1.59-1.65l2.4-7.64c-13.3-10.26-2.21-32.4,4.48-44.02,5.94-10.31,8.89-10.81,20.76-11.02.55-4.42,1.87-7.65,3.96-9.67-1.35-1.6-1.14-4.36.64-8.28-30.71,8.48-62.24,10.45-93.53,11.39-19.09,1.51-28.18,6.93-43.88,17.4-63.71,34.33-146.63,30-202.07-16.34-5.66-3.34-10.49-3.72-17.18-4.12-29.28-1-58.53-2.99-87.69-11.03,1.34,8.59-.84,20.16-8.23,26.61-2.91,2.54-8.63,6.88-12.06,4.37.29,3.29-9.25,5.72-11,3-1.83.24-13.69.14-16.48-.02-8.99-.53-27.53-4.46-32.39-12.6-5.45-9.14-1.02-41.92-3.18-53.82-.71-3.89-4.26-6.11-4.96-11.04-.92-6.5-.65-41.62,2.15-45.89,5.86-8.93,20.85-9.93,30.87-9.63.07-1.33-.09-2.68,0-4,2.22,2.28,4.81,2.95,7.77,2l1.23,2c1.15-2.87,6.42-1.84,7,1,2.96-1.2,6.47-1.6,10.52-1.19,7.08-3.26,26.82-1.92,25.48,9.19l2.62,3.66c-.62,6.16.06,11.69,2.05,16.58,9.94,3.33,20.26,5.3,30.95,5.89,3.31,1.44,7.1,2.4,11.37,2.87,1.13-1.16,2.69-1.4,4.7-.72-4.21-10.69-8.34-22.35-9.93-33.77-.1-.7.07-1.44.28-2.2s.57-1.56.95-2.31c-4.18-1.33-4.5-10.19,1.38-8.84l1.62-1.16.38-2.24,19.15-4.19c10.35-3.15,16.58-17.34,2.55-20.14l-.07-1.43c-2.97-.67-1.04-8.11,2-8,1.32-1.53,3.6-2.36,6.84-2.48,6.35-13.62-13.03-19.2-23.16-21.33l-.67-2.19c-.09-3.6-1.09-6.93-3-10-.15-.94-.26-1.89-.24-2.82.27-8.61,18.37-35.01,24.59-43.1,66.78-86.9,193.14-94.51,274.02-23.23,9.6,8.46,46.18,57.01,46.11,66.91,0,1.08-.13,1.67-1.48,2.25Z"/>
          <g>
            <g>
              <path class="st1" d="M349.71,702.3c9.36,16.83,20.13,32.59,33.29,46.69-30.97-1.39-61.94-5.33-91.88-13.1l1.03-43.73,57.56,10.14Z"/>
              <g>
                <path class="st5" d="M765.68,794.31c2.29,3.11.37,7.21-.43,10.45-.86,3.51-6.72,21.24-9.19,21.85-3.84.94-42.05-11.45-42.65-14.53-.63-3.27,10.36-29.8,13.54-30.65,2.36-.63,37.29,10.92,38.73,12.89Z"/>
                <path class="st3" d="M752.98,745c.34.34.65,3.47,2.47,5.05,2.5,2.17,7.09,2.87,7.6,5.47l-7.69,22.56-11.44-3.67c2.83-9.08,4.44-18.83,7.1-27.9.3-1.02.14-3.33,1.95-1.51Z"/>
              </g>
              <g>
                <path class="st1" d="M783.7,679.15l2.14,1.52c-3.47,13.8,1.29,41.51-3.3,53.37-2.57,6.65-18.67,12.15-22,6.93-4.21-6.6.73-41.39-3.47-51.33l26.63-10.49Z"/>
                <g>
                  <path class="st1" d="M747.91,693.09l1.12,43.45c-35.57,9.21-72.2,15.14-109.03,15.46,12.34-14.96,25.68-29.5,32.6-48.11l75.3-10.8Z"/>
                  <path class="st10" d="M712.76,729.75c-7.1,7.16-15.26-8.32-8.08-12.82,8.54-5.36,11.95,8.93,8.08,12.82Z"/>
                </g>
              </g>
              <g>
                <path class="st1" d="M281,761.5c-1.72,7.48-9.89,6.32-14.27,7.56-.75.21-.75,1.7-1.52,1.85-9.84,1.84-45.21,3.82-45.21-11.4v-35.5l61-1.5c-1.69,10.82,2.26,29.15,0,39Z"/>
                <path class="st5" d="M260,662c.79.09,1.98.37,2,.92.62,15.13.62,32.75,0,47.89l-2,1.19c-3.72.45-12.47,4.54-16.53,1.03-3.78-3.27.98-21.74-3.61-26.88-3.36-2.85-7.86,6.41-7.86,7.35v20.5c-3.9.48-15.82-3.99-16.8-7.66-.76-2.82-.83-34.4-.17-37.62.53-2.59,6.64-6.21,9.55-6.64,9.29-1.38,25.82-.39,35.42-.07Z"/>
                <path class="st1" d="M260,712v-50c4.5.15,17.51-1.17,20.09,2.41,1.72,2.39,1.43,42.1-.56,44.63-6.25,2.27-13.03,2.17-19.54,2.96Z"/>
              </g>
            </g>
            <path class="st0" d="M774,671l1-1-1,1Z"/>
            <g>
              <circle class="st11" cx="511.27" cy="621.08" r="27.51"/>
              <g>
                <path class="st3" d="M677.88,648.11c-5.82,81.41-81.7,138.36-159.89,141.89l-.99-118.01c8.72-1.79,8.66,15.27,13.88,16.52,5.92-.5,24.92-11.88,25.12-17.11s-8.67-8.16-5.19-16.06c5.32-12.07,12.52-5.91,21.64-6.44,7.3-.42,6.03-19.69,9.18-24.97l63.7.23c6.19,15.38,16.4,21.7,32.55,23.94Z"/>
                <path class="st8" d="M567,695v-6.01s14.88-1.11,14.88-1.11c-.59-11.59.57-25.24,13.92-28.59,7.63-1.91,22.86.73,15.64,10.78-22.01-17.09-21.42,18.93-15.93,18.93h16.5c-2.09,7.94-10.89,5.81-17,6.01,7.24,13.9,4.69,44.09-14.8,45.78-7.64.66-24.93-6.76-13.71-14.53,31.15,25.02,19.38-31.26,16.51-31.26h-16Z"/>
              </g>
              <g>
                <path class="st2" d="M506,788c-78.28,2.83-149.9-60.35-160.75-137.4.78-3.65,9.44-4.02,12.43-5.42,9.99-4.66,14.66-10.5,20.23-19.75l66.1-.45c-.13,5.13,1.66,19.56,5.91,22.59,5.45,3.89,19.73-4.76,23.6,8.49,1.49,5.09-6.38,9.75-5.54,15.36.78,5.19,18.8,17.52,24.47,16.59,6.46-1.06,5.79-15.75,13.55-14.02v114Z"/>
                <path class="st8" d="M398.43,688.45c2.57-3.77,6.42-8.11,11.55-5.92,6.33,2.69.78,18.12,9.31,16.36,3.12-.64,21.17-24.91,24.74-26.35,7.85-3.18,14.61,5.19,8.98,11.97-6.6,4.43-27.92,32.49-33.56,33.51-2.12.38-3.18-.04-5-.96-1.2-.61-17.71-18.47-18.31-19.67-2.53-5.07-.18-5.29,2.3-8.93Z"/>
              </g>
              <g>
                <path class="st5" d="M517,465c1.1-2.71,15.44-1.3,18.51-1.01,53.29,5.09,101.52,42.99,127.91,88.09,13.55,23.16,6.08,12.96-9.32,24.5-12.7,9.51-14.17,22.2-5.21,35.07l-1.54,2.18-83.66-.8c-9.14-10.7,8.67-14.48,9.38-19.55.61-4.38-14.95-22.92-19.71-23.27-4.22-.31-8.79,8.43-11.37,9.35-1.4.5-12.86-6.43-13.46-7.58-1.86-3.58,1.19-14.79-4.72-17.81-1.59-.81-1.22,2.32-4.79-1.17-.9.12-1.09-.36-1.06-1.19l-.94-86.81Z"/>
                <path class="st6" d="M519,553c-.19-.19-2.43.77-2.07-1.43l.07-86.57,2,88Z"/>
                <g>
                  <path class="st10" d="M573.01,503.99c-3.07,14.37,10.47,11.97,8,0,11.02-1.37,5.46,7.45,6.99,9,3.15,3.19,11.5-2.92,8.01-9,10.02.34,4.16,4.42,6.12,9.37.91,2.3,4.44,1.16,5.44,2.56,2.75,3.86-4.46,8.78,8.44,7.06,2.55,11.67-10.96.75-8.01,14.01h8.01c2.47,10.04-7.25,5.2-8.06,7.62-3.53,10.55,11.39-.21,8.07,11.38-8.61-2.22-7.61,2.65-9.16,3.85-.88.68-3.53-.19-3.85.14-1.14,1.16,3.2,10.43-7,8.01l-.43-7.06c-10.73-5.65-2.44,12.07-12.92,7.92-2.89-1.14-1.3-6.39-1.64-8.87h-7.01s.01,9.01.01,9.01c-12.62,2.16-6.17-6.74-7-7.99-.3-.45-4.7-.66-5.85-1.24-.49-.24.35-2.51-.71-2.85-1.57-.51-5.58,1.1-7.01-.86-3.39-8.77,4.28-5.19,6.09-8.04,4.32-6.81-5.37-4.54-6.38-6.18-2.76-4.48.77-8.64,6.2-7,4.52-5.53-.44-8.15-6.35-6.85-1.28-7.89,3.83-5.15,8.87-7.13l-.87-5.86c12.5,1.71-.6-14.01,12.01-11.02Z"/>
                  <g>
                    <path class="st5" d="M595.5,522c5.52,1.12,1.97,23.73,1.5,28.5-1.29.05-3.67,1.5-4.5,1.5h-21.5c-2.87-3.27-2.42-30,.5-30,7.01.98,17.49-1.32,24,0Z"/>
                    <path class="st10" d="M592,528v17l-16.56.06c-.88-1.18-1.26-15.41,1.06-17.06h15.5Z"/>
                  </g>
                </g>
              </g>
              <g>
                <path class="st7" d="M506,464v88.5c0,2.63-8.74.83-9.88,1.62-1.89,1.31-.44,14.2-1.33,17.16-.41,1.34-7.98,6.99-8.83,7.25-10.55,3.13-10.16-20.34-27.91,2-17.2,21.65-.11,14.05,3.45,22.49.99,2.35-.1,9.98-1.98,9.98h-83l-1.08-2.04c13.73-21.72-3.41-37.41-23.46-43.51,18.64-41.63,51.86-77.66,95.25-93.73,7.3-2.7,29.49-9.72,36.28-9.72h22.5Z"/>
                <g>
                  <path class="st8" d="M430.31,559.65c-8.32-1.44-22.28-8.98-28.34-15.12-13.47-13.66-8.98-21.94,5.53-32.53,21.17-15.45,52.62-12.78,69.47,8.52,7.34,9.28,7.27,10.56,0,19.95-9.83,12.68-30.74,21.93-46.66,19.18Z"/>
                  <circle class="st7" cx="437.94" cy="530.87" r="19.88"/>
                </g>
              </g>
            </g>
          </g>
        </g>
      </g>
      <g>
        <path class="st0" d="M785,665c-2.21,2.9-6.51,4.36-10,4-1.84-1.69-2.35-4.61-1.54-8.76-.92-5.74-.41-10.82,1.54-15.24l-2-1.18c.1-1.31.12-11.07-.44-11-12.51,7.31-26.32,11.98-40.49,14.83-7.42,1.49-33.7,5.38-39.04,2.71-.72-.36-1.39-.84-2.03-1.36.22-2.69-.19-8.85-3-10l2.94-1.8c64.42,4.32,136.64-37.17,97.55-109.13-7.83-11.33-14.62-23.07-20.37-35.24-1.41-57.48-3.82-115.39-15.66-172.85-2.66-8.3-4.14-16.63-4.45-24.98,1.77-7.99,2.14-16.31,5-24,13.17,58.4,21.29,102.71,25.04,163.46.98,15.92-1.42,40.14,1.21,54.79,1.45,8.09,21.16,31.56,25.93,43.07,14.22,34.25,7.23,67.32-21.01,91.42,3.31,10.97-1.86,31.76.83,41.26Z"/>
        <path class="st0" d="M275,296l-.95,11.12c-13.03,54.93-17.81,112.32-17.11,168.24-.13,8.89-.77,17.43-5.6,24.9l-18.12,28.33c-39.77,71.2,37.5,113.35,99.93,108.61l2.84,1.81c-.26.1.67,3.22-4.01,2-.16,2.72.56,5.36,1.01,8-.68.51-1.38.99-2.14,1.34s-1.45.66-2.15.66c-27.18.11-54.41-5.2-78.74-17.5.32,1.43-.41,2.15-1.96,2.5,2,3.69,1.8,11.09-1,14-3.65-.32-7.94,2.92-9-4,.27-4.52.79-19.85-.22-23.28-.68-2.33-10.4-10.23-12.76-13.24-31.29-39.91-7.1-85.26,18.9-120.05,2.95-73.56,4.45-148.92,27.08-219.42,1.34,8.63,2.8,17.36,4,26Z"/>
        <path class="st11" d="M688,639c-9.83-.8-28.75-4.86-30.77-16.74-2.69-15.79,16.73-7.6,17.77-22.25-2.56-2.28-21.93,8.33-21.9-4.51.03-11.43,21.53-16.68,29.91-18.5l1.82-2.43c20.34-2.25,45.98-9.04,56.72-28.14,2.64-4.7,2.69-12.06-3.19-4.44-11.4,18.07-32.04,25.55-52.79,26.91l-2.57-1.91c-2.57-12.54-28.67-48.97-38.03-59.47-52.47-58.83-153.54-71.87-221.63-34.7-38.04,20.76-66.52,54.47-83.33,94.17-1.84,2.52-11.04,1.58-14.43.87-16.6-3.47-33.04-10.99-40.56-27.05-6.29-8.65-7.79-1.18-3.07,5.97,13.71,20.77,35.59,26.08,59.25,27.82l1.8,2.39c9.19,1.9,26.14,6.3,27.08,17.48.67,7.97-2.56,9.37-10.08,8.52-.18.88-.65,1.47-1.47,1.73l-10.88-2.73c-13.69-1.31,4.07,6.98,8.97,6.51l1.37,2.49c6.79,2.35,11.63,1.99,9.78,11.26-3.07,15.34-22.27,13.2-31.78,16.74-58.74,4.72-136.54-28.77-110.02-100.52,5.42-14.67,25.85-37.82,27.78-49.22,2.47-14.57.35-32.98,1.2-47.79,2.79-48.81,6.49-98.41,20.04-145.46.13.97-.14,2.03,0,3,5.04,18.07,9.91,35.31,21.28,50.49,22.1,29.53,58.81,35.55,93.54,31.07,22.9-2.95,39.45-8.86,57.93-20.62l2.25,1.05.61,2.98c-6.78,12.25-4.87,26.81,5.91,36.03l.48,2.99-1.39,1.15c5.55,4.94,12.32,8.09,19.35,10.38l1.05,2.47c2.74.54,2.51,2.04,0,3l1,1,2.17.75c.22,18.12,14.23,27.86,29.09,14.51,1.68-.9,3.51-1.18,5.3-.47,18.02,10.75,31.37,4.8,31.29-16.71l2.14-1.08,1.04-2.53c9.87-2.85,17.62-5.49,21.96-15.47l-.04-2.6c9.48-9.33,6.52-24.13,1.86-35.16l1.18-2.24,3.79.26c47.2,32.56,128.38,31.97,156.21-24.26,7.56-12.56,11.85-26.79,15-41,14.94,49.77,18.05,102.73,21.04,154.46.73,12.7-1.04,30.96,1.03,42.97,1.29,7.46,21.36,33.55,25.95,46.05,26.24,71.53-48.21,105.41-108.02,100.52Z"/>
        <path class="st7" d="M691,649c28.52.52,57.82-4.1,82.48-19.02,2.14.27,1.46,12.68,1.52,15.02l-1.25,3.78c-20.78,18.89-47.84,24.7-73.98,29.04-.4,9.05-4.04,13.11-10.9,12.16l-.88,1.02c-1.82.04-8.47,1.05-7.98-1.46,3.07-12.25,9.99-28.18,10.98-40.54Z"/>
        <path class="st7" d="M333,649c2.2,13.09,5.58,26.35,11.01,38.51.45,2.85-5.67,1.65-7.01.49-4.07-.56-8.07-1.39-12.01-2.5l-4.15-15.74-16.25-2.35c-7.19-.54-12.05-3.34-14.59-8.42-1.74-1.52-2-3.9-4.04-5.47-6.97-5.35-22.73-2.29-31.96-2.53-3.22-2.7.93-4.55,3.87-4.22-5.4-2.63-8.69-6.22-9.87-10.78.18-1.33-.54-5.91.49-5.99,25.49,14.75,55.33,19.22,84.51,18.99Z"/>
        <path class="st11" d="M775,645c.18,6.43.93,18.19,0,24-.05.32.04.67,0,1l-1,1c-3.42,4.7-26.47,9.4-33.19,11.11-16.02,4.07-35.38,8.49-52.81,8.89-2.85-3.83,3.79-.68,6.52-2.98,2.17-1.82,2.52-10.97,4.11-12.12,1.09-.78,20.27-3.35,24.36-4.4,20.59-5.3,36.27-12.13,52-26.5Z"/>
        <path class="st0" d="M340,567c4.85,1.18,5.93,6.36,3,10-16.91-3.5-26.95-1.13-43.67-10.83-5.76-3.35-28.76-23.45-20.86-30.18,5.77-4.91,10.52,9.28,14.49,13.54,7.51,8.07,20.33,13.62,30.97,16.03,4.77,1.08,12.03.46,16.06,1.44Z"/>
        <path class="st0" d="M683,577c-.4-3.02.57-7.22,0-10,15.41-.29,34.56-5.73,46.03-16.47,2.59-2.43,14.5-22.26,16.05-10.05,1.07,8.41-13.21,20.31-19.78,24.32-15.69,9.57-25.73,8.59-42.3,12.2Z"/>
        <path class="st11" d="M290,659c9,7.87,21.18,6.56,32.42,8.87l4.73,17.98,10.85,1.16-1,.99c-8.07-.3-38.74-3.16-43.99-7.51-3.82-3.16-1.2-16.07-3.01-21.49Z"/>
        <path class="st0" d="M360,603l-2,8c-6.16-2.13-15.61-1.49-18.01-9.47,1.01-4.92,17.65,1.21,20.01,1.47Z"/>
        <path class="st11" d="M248,636c4.62,5.02,11.48,10.43,17.99,12.01-1.72,3.24-11.97-1.89-11.99,2.99-2.49-.07-4.59-.79-7-1-.6-4.84.35-9.27,1-14Z"/>
        <path class="st11" d="M487,274c13.01-4.01,30.76-1.66,43.28,4.51,2.19,2.27,4.43,3.11,6.72,2.49,2.68,22.9,12.52,42.43,24,62,3.04,3.22,4.38,6.22,4,9-2.09,1.82-13.95-4.24-15.27-5.89-1.37-26.64-33.51-31.19-54.5-24.77-13.92,4.26-17.49,11.38-21.08,24.69-8.2,2.72-14.83,6.69-20.67,13.09l-2.48-.12-.37-2.98c7.51-6.35,12.97-13.02,16.37-20.02,14.01-20.32,16.22-38.69,20-62Z"/>
        <path class="st7" d="M537,281l-1.98,4.99c-5.67-11.14-30-12.13-41.47-11.94-4,.06-4.91,5.92-6.54-.05.48-2.95.15-7.45,3.71-8.79,5.18-1.94,43.07-3.09,45.8,1.78,1.43,2.54.07,10.43.49,14.01Z"/>
        <g>
          <path class="st10" d="M451,359c2.54-3.45,8.99-8.4,12.68-10.82,2.26-1.48,8.7-3.02,9.09-3.41.46-.47,2.34-9.29,4.05-12.45,10.19-18.81,49.15-19.1,64.12-7.76,5.25,3.98,7.4,8.39,9.63,14.37.68,1.82,0,4.99.58,5.91.41.66,12.03,5.47,13.85,7.15,1.5,2.22,6.47,6.87,8,8,5.75,12.34,9.07,30.47-3,40-2.94,7.04-13.83,9.33-20.75,9.66.47,3.88-.28,6.65-2.25,8.34-1.44,11.98-1.7,24.37-17.49,25.07-7.85.35-15.37-5.78-18.02-5.71-5.34.14-9.03,10.89-23.07,5.72-9.91-3.66-9.89-14.32-11.42-22.08l-1-1c-.11-.84-.1-2.15,0-3-.98-1.25-1.38-3.26-1.19-6.03-5.61-2.21-11.36-4.07-17.26-5.59l-.55-2.38c-13.74-10.71-16.01-27.11-7-42,.4-.67.73-1.64,1-2Z"/>
          <g>
            <path class="st7" d="M570,400c-.29,12.77-13.41,14.17-23,18,.38-3.14-.72-6.77,1.19-9.82,7.2-.6,16.14-3.7,21.81-8.18Z"/>
            <path class="st7" d="M457,403c3.77,1.82,18.15,4.52,19.5,6.95,1.8,3.24-.28,5.1-.5,7.05-11.04-3.71-22.44-8.25-26.99-20,.48-.5,6.88,5.47,7.99,6Z"/>
            <g>
              <path class="st7" d="M477,421c-.41-.16-.94-.58-1-1,.4.19.92.58,1,1Z"/>
              <path class="st6" d="M479.37,360.63c4.75,4.32,10.27,8.38,16.63,9.87,12.06,2.82,29.49.77,40.32-4.68,5.89-2.96,9.37-8.33,14.06-10.82,29.37,13.29,22.56,48.75-12.25,42.36-7.81-1.43-14.47-7.64-22.64-8.34-18.83-1.61-32.8,14.54-51.18,6.16s-9.23-38.67,9.68-38.2l-1.99-1.97,2.51-1.02c.4.1,3.66,5.55,4.85,6.63Z"/>
              <path class="st8" d="M537.73,429.74c-3.32,6.21-18.17,6.08-21.61-1.37-1.65-3.57-2.44-28.24-.17-29.94,4.18-.79,22.21,6.67,23.54,9.56,1.15,2.5-.52,19.42-1.77,21.74Z"/>
              <path class="st8" d="M508,399v29.5c0,5.8-15.79,7.07-19.96,3.96-3.78-2.82-4.22-19.27-4.12-24l.7-1.58c7.72-2.75,14.7-8.85,23.37-7.89Z"/>
              <path class="st0" d="M507.76,328.26c29.29-4,32.44,19.88-2.14,15.62-19.88-2.45-12.1-13.67,2.14-15.62Z"/>
            </g>
          </g>
        </g>
        <g>
          <path class="st11" d="M714,213c-4.66-1.05-9.86-2.41-14.56-3.03-4.18-.55-10.51.54-14.98.13-32.63-3.01-109.52-9.12-133.98,16.88-4.15,4.41-6.43,10.21-10.17,14.9-5.39.11-11.53-1.77-16.78-1.92-13.08-.37-24.51,1.06-36.92.98-.71,0-.29,4.64-4.06,0-7.34-9.04-6.35-14.1-18.64-21.36-27.97-16.53-97.01-12.11-129.37-9.47-6.94.57-16.93.33-24.55,1.89,41.2-54.65,120.87-81.51,187.52-84.98,75.82-3.95,169.94,23.02,216.48,85.98Z"/>
          <g>
            <path class="st0" d="M286,220c-21.5-13.48-38.61-35.18-32.54-62.04,2.89-12.83,13.16-24.93,25.56-29.43,11.43-4.15,25.99-3.58,37.96,1,14.31,5.47,27.45,17.61,35.5,30.41,11.47-7.57,23.73-14.33,36.55-19.39,77.75-30.71,173.89-32.78,251.63,2.29,10.67,4.81,21.19,10.51,30.84,17.16,3.44-6.53,8.83-12.75,14.49-17.5,47.85-40.18,109.92-1.78,74.42,57.42l-22.41,21.09c-7.79-3.77-15.58-6.1-24-8-4.78-3-8.95-6.99-12.51-11.98-93.96-96.65-284.96-95.9-379.1-.59-3.53,4.89-7.66,8.75-12.39,11.57-6.54,1.33-17.96,5.08-24,8Z"/>
            <path class="st11" d="M727.1,212.94l-13.12-18.44c.96-6.67,25.68-20.09,15.6-26.57-7.83-5.04-22.76,9.65-28.06,14.87l-20.39-17.11c11.24-22.3,49.14-41.38,69.85-21.18,23.58,23,1.3,58.34-23.88,68.42Z"/>
            <path class="st11" d="M289.76,136.26c10.25-1.37,18.86,1.07,27.76,5.72,5.9,3.08,26.78,18.79,22.99,26.01l-17.16,14.94c-2.42.35-21.12-24.08-30.39-14.46-8.27,8.58,16.41,16.97,16.11,26.07-.04,1.25-12.39,18.42-13.54,18.48-21.3-11.58-42.53-37-27.95-61.91,4.47-7.63,13.33-13.66,22.17-14.83Z"/>
          </g>
          <g>
            <path class="st10" d="M310,212l3.74-2.55c31.23-2.9,62.66-4.08,94.3-3.54,27.69,1.39,61.66,3.95,74.4,31.59l2.5,2.69c17.53-2.58,36.93-3.61,54.54.04,15.21-34.62,62.48-34.93,95.33-34.95,21.37,1.25,42.54,2.11,63.51,2.59,6.03.11,11.26,1.83,15.68,5.14,7.06-1.89,19.64,2.09,24,8,13.93,6.73,25.75,19.3,21.78,36.28-1.81,7.75-9.42,2.02-6.78,13.72-.11,7.39-.95,14.71-2.54,21.97l-2.46,2.03c1.64,7.94-7.38,36.65-12.91,40.07-.64.4-1.36.68-2.09.93-18.3,39.72-67.6,47.64-107.08,41.92-23.89-3.46-51.42-14.01-64.92-34.92l-3.68-2.36c-2.91-5.02-5.66-10.12-8.27-15.3-6.59-13.09-14.09-29.82-12.04-44.35l-2.08-1.55c.35-3.86.3-7.69-.15-11.48-2.24-3.1-41.68-3.33-44.35-.21-.53,3.29-1.67,5.37-3.41,6.24-.13,1.38.39,2.53,1.47,3.47-1.28,13.16-8.81,48.04-17.95,56.86-.97.94-2.2,1.43-3.52,1.68-4.29,9.68-14.31,18.83-23.38,24.78-37.26,24.43-98.09,26.33-134.48-.66-21.38-15.85-27.62-36.57-34.14-61.12-.34-.86-.34-1.86,0-3-4.39-7.88-5.15-17.14-4-26-.34-2.21.65-4.67-.52-6.99-1.78-3.53-7.39-1.96-7.25-12.52.18-13.6,11.2-24.9,22.76-30.49l.46-2.42c7-3.03,14.32-5.43,21.73-7.23l1.82,1.65Z"/>
            <path class="st7" d="M467,336c2.38,1.07.29,2.89-.45,4.05-4.77,7.41-10.89,11.79-15.55,18.95,2.2,1.65,1.65,2.11-1,2l-26.22,14.28c-72.04,21.4-137.2,5.39-148.78-76.28,5.79,11.3,8.05,24.12,14.13,35.37,32.35,59.86,140.9,55.24,177.87,1.63Z"/>
            <path class="st11" d="M330,226c-32.44,23.28-43.8,80.06-19,112-19.97-17.88-28.67-63.41-17.54-87.04,7.41-15.72,21-20.96,36.54-24.96Z"/>
            <path class="st7" d="M733,336c1.59,3.95-4.53,11.23-7.02,14.47-34.82,45.25-110.28,41.17-152.98,9.53-2.78,2.15-9.99-5.1-8-8-1.56-2.31-2.93-7.18-4-9,26.41,28.17,61.63,36.5,99.54,34.04,29.95-1.95,56.75-14.94,72.46-41.04Z"/>
            <g>
              <path class="st8" d="M695,227c9.94,3.59,16.46,12.5,21.6,21.36,17.1,29.49,16.84,71.66-9.6,95.64-31.06,32.79-102.65,28.21-131.99-4.51-22.35-24.93-39.69-97.05.91-112.04,25.7-9.49,92.05-7.33,119.08-.45Z"/>
              <path class="st11" d="M707,344c30.47-32.18,23.53-91.11-12-117,10.91,2.78,19.68,5.05,28.04,13.46,23.21,23.38,9.87,85.25-16.04,103.54Z"/>
              <g>
                <path class="st10" d="M616.74,265.25c.14.02.22,1.47,1.02,1.68,34.46,9.19,19.22,65.5-13.56,59.36-36.3-6.8-30.74-66.59,12.54-61.04Z"/>
                <path class="st8" d="M617.74,278.17c9.27-1.82,10.89,11.12,4.32,13.38-12.84,4.42-12.99-11.68-4.32-13.38Z"/>
              </g>
            </g>
            <g>
              <path class="st8" d="M330,226c26.56-6.85,97.7-8.65,122.74,4.72,27.24,14.55,19.87,66.69,8.44,89.95-26.27,53.43-116.38,60.86-150.17,17.33-22.57-24.76-18.23-65.14-1.73-92.1,5.1-8.33,11.23-16.5,20.73-19.9Z"/>
              <g>
                <path class="st10" d="M437.64,315.64c-2.86,3.59-14.8,10.76-19.3,10.95-42.26,1.72-42.64-66.24,2.07-60.5,23.13,2.97,29.82,33.77,17.23,49.55Z"/>
                <circle class="st8" cx="424.02" cy="285.06" r="7.34"/>
              </g>
            </g>
          </g>
        </g>
      </g>
    </g>
  </g>
</svg>